Coordinates
version=1
nRows=20
nColumns=23
inDegrees=yes

Units are S.I. units (second, meters, Newtons, ...)
If the header above contains a line with 'inDegrees', this indicates whether rotational values are in degrees (yes) or radians (no).

endheader
time	pelvis_tilt	pelvis_list	pelvis_rotation	pelvis_tx	pelvis_ty	pelvis_tz	hip_flexion_r	hip_adduction_r	hip_rotation_r	knee_angle_r	knee_angle_r_beta	ankle_angle_r	subtalar_angle_r	mtp_angle_r	hip_flexion_l	hip_adduction_l	hip_rotation_l	knee_angle_l	knee_angle_l_beta	ankle_angle_l	subtalar_angle_l	mtp_angle_l
      0.00000000	    -16.09283092	      4.66993135	      0.69321592	      2.30503333	      0.93013648	      1.01826304	    -18.15282935	     -2.67688874	    -16.01684618	     17.52243860	      0.30582425	    -16.86244476	     -6.78775913	      0.00000000	     57.57647212	      7.59443085	     -2.17996653	     60.30089356	      1.05244913	      0.09540073	    -16.93172306	      0.00000000
      0.00666667	    -15.68572983	      3.65679970	      0.78140083	      2.30534441	      0.93172031	      1.01775140	    -18.22973469	     -2.28353953	    -16.51840242	     22.02126427	      0.38434357	    -16.53731971	     -8.76708109	      0.00000000	     56.29503716	      6.57249550	     -2.41856671	     55.02530046	      0.96037266	      0.25342859	    -15.41997041	      0.00000000
      0.01333333	    -15.38584661	      2.86429256	      0.75552405	      2.30554363	      0.93277136	      1.01725155	    -18.24171877	     -2.16834638	    -16.76101305	     26.48152218	      0.46218975	    -16.07837546	    -10.34467760	      0.00000000	     54.89111177	      5.68609794	     -2.96796466	     49.41470360	      0.86244928	      0.42053106	    -13.69433938	      0.00000000
      0.02000000	    -14.96702677	      2.20821171	      0.71862684	      2.30581318	      0.93358284	      1.01667928	    -18.46818574	     -2.08720675	    -16.57317550	     30.74191507	      0.53654764	    -15.64667688	    -12.06644248	      0.00000000	     53.12137702	      5.01711153	     -3.61249164	     43.57832947	      0.76058533	      0.52926979	    -11.73289025	      0.00000000
      0.02666667	    -14.36725358	      1.71851253	      0.50581228	      2.30614986	      0.93422516	      1.01625600	    -18.81167123	     -2.15820703	    -15.94643842	     35.05075931	      0.61175116	    -15.44229164	    -13.79079846	      0.00000000	     50.97999165	      4.41628402	     -4.55853458	     37.72668129	      0.65845480	      0.57071846	     -9.61452407	      0.00000000
      0.03333333	    -13.63713852	      1.24840395	      0.31945045	      2.30648357	      0.93450379	      1.01576289	    -19.19288225	     -2.13980913	    -15.01895229	     39.45843245	      0.68867956	    -15.25969230	    -15.53638990	      0.00000000	     48.62866759	      4.00514016	     -5.36025855	     32.07669891	      0.55984401	      0.53107602	     -7.43800645	      0.00000000
      0.04000000	    -12.87734238	      0.67865448	      0.15563714	      2.30669735	      0.93433262	      1.01536264	    -19.45049028	     -1.88482967	    -13.81191977	     44.00777811	      0.76808062	    -15.08201710	    -17.17001719	      0.00000000	     46.28766824	      3.63840084	     -5.85447249	     26.89847466	      0.46946695	      0.58718271	     -5.34819857	      0.00000000
      0.04666667	    -11.75467299	      0.39787583	     -0.01768085	      2.30693110	      0.93407883	      1.01504184	    -19.96868767	     -1.91548595	    -12.70610935	     48.73757206	      0.85063110	    -15.24851970	    -18.76260115	      0.00000000	     43.58562622	      3.53398109	     -6.49782109	     22.22848951	      0.38796033	      0.35100337	     -3.61460057	      0.00000000
      0.05333333	    -10.79522849	      0.04855429	     -0.01825885	      2.30679669	      0.93308695	      1.01466957	    -20.11251516	     -1.72879136	    -11.63605565	     53.71989126	      0.93758898	    -15.24674571	    -19.98707006	      0.00000000	     41.26539737	      3.53282594	     -6.62244336	     18.37866696	      0.32076825	      0.14568449	     -2.31797707	      0.00000000
      0.06000000	     -9.82653854	     -0.19422467	      0.11546742	      2.30642460	      0.93166276	      1.01437787	    -20.13197826	     -1.54188687	    -10.75173262	     58.83251654	      1.02682112	    -15.25242667	    -20.98360388	      0.00000000	     39.15602719	      3.64563869	     -6.67074682	     15.45007009	      0.26965459	     -0.02852698	     -1.24520876	      0.00000000
      0.06666667	     -8.89130707	     -0.29226461	      0.39496571	      2.30580863	      0.92983226	      1.01411563	    -19.99700103	     -1.41160369	    -10.12464790	     64.03254617	      1.11757876	    -15.23569616	    -21.68722728	      0.00000000	     37.30443538	      3.89667450	     -6.68706733	     13.45635412	      0.23485768	     -0.20839582	     -0.47668982	      0.00000000
      0.07333333	     -8.10214526	     -0.29724275	      0.80255634	      2.30493774	      0.92747829	      1.01392214	    -19.59651605	     -1.27004788	     -9.68294727	     69.27996261	      1.20916345	    -15.15809226	    -22.28852790	      0.00000000	     35.90044240	      4.20408190	     -6.71683097	     12.55070954	      0.21905120	     -0.20041807	      0.10757188	      0.00000000
      0.08000000	     -7.18450385	      0.01907184	      1.34079077	      2.30403601	      0.92501716	      1.01370109	    -19.31458838	     -1.52824107	     -9.72415686	     74.45605970	      1.29950339	    -15.03506259	    -22.36528031	      0.00000000	     34.39770119	      4.82202200	     -6.77202986	     12.22377936	      0.21334520	     -0.51286120	      0.24850231	      0.00000000
      0.08666667	     -6.44287457	      0.39369302	      1.96604600	      2.30297208	      0.92201124	      1.01353091	    -18.76966702	     -1.78923017	     -9.88608094	     79.58089717	      1.38894868	    -14.93979045	    -22.62916143	      0.00000000	     33.33107915	      5.45239404	     -6.79869628	     12.88174138	      0.22482880	     -0.64494199	      0.12785173	      0.00000000
      0.09333333	     -5.87986201	      0.87620374	      2.64160905	      2.30183565	      0.91847825	      1.01336936	    -17.97320375	     -2.24232120	    -10.25196807	     84.65766205	      1.47755494	    -14.57723621	    -22.43158706	      0.00000000	     32.58828480	      6.14959752	     -6.79448522	     14.27581818	      0.24916003	     -0.77675398	     -0.20305540	      0.00000000
      0.10000000	     -5.40933761	      1.41046093	      3.39471022	      2.30063727	      0.91452127	      1.01321113	    -17.03951110	     -2.75126407	    -10.71789257	     89.59702690	      1.56376312	    -14.25444417	    -22.38724821	      0.00000000	     32.06226832	      6.88391624	     -6.67693200	     16.33469924	      0.28509428	     -0.79393464	     -0.81696719	      0.00000000
      0.10666667	     -5.11787028	      1.93894188	      4.16456981	      2.29936267	      0.91005250	      1.01307221	    -15.83537022	     -3.33312071	    -11.21889120	     94.43009327	      1.64811604	    -13.86405336	    -22.27935128	      0.00000000	     31.79941103	      7.60843756	     -6.40352399	     18.93078213	      0.33040448	     -0.67076424	     -1.67971181	      0.00000000
      0.11333333	     -5.02566169	      2.42113916	      4.95366223	      2.29801667	      0.90510326	      1.01290375	    -14.33046209	     -3.94879377	    -11.71053918	     99.13899515	      1.73030188	    -13.39956801	    -22.12621180	      0.00000000	     31.78878585	      8.31808801	     -5.95056793	     21.93794486	      0.38288937	     -0.32894095	     -2.78257311	      0.00000000
      0.12000000	     -5.12556048	      2.84699910	      5.71856645	      2.29649959	      0.89976028	      1.01274814	    -12.48379741	     -4.61233987	    -12.11046795	    103.73261401	      1.81047566	    -12.89435671	    -21.94029309	      0.00000000	     31.97432437	      9.01431530	     -5.36175941	     25.20993345	      0.43999634	      0.40963313	     -4.05614814	      0.00000000
      0.12666667	     -5.19067238	      3.34804747	      6.46066413	      2.29491568	      0.89441513	      1.01252108	    -10.59235899	     -5.47437614	    -12.44382617	    108.13110996	      1.88724389	    -12.33907682	    -21.72037164	      0.00000000	     31.99606767	      9.83528937	     -4.71334358	     28.51215539	      0.49763099	      1.61952524	     -5.44055116	      0.00000000
